<svg width="1431" height="1431" viewBox="0 0 1431 1431" fill="none" xmlns="http://www.w3.org/2000/svg">
<rect width="1431" height="1431" fill="black"/>
<path d="M843.263 1283.91H608.191L83 716.093V461.941L843.263 1283.91Z" fill="white"/>
<path d="M481.236 147.057C350.905 147.042 214.832 147.007 84.5 147C84.3768 147.302 84.5003 146.909 84.377 147.462C84.4123 147.892 84.4511 148.323 84.4922 148.757L432.603 525.119C432.588 487.406 432.561 434.225 432.567 418.171C432.581 387.172 432.692 356.172 432.612 325.173C432.602 321.064 434.001 319.812 438.108 319.812C439.5 319.812 440.106 319.819 441.105 319.819C549.104 319.814 657.103 319.707 765.102 319.873C794.58 319.918 824.145 319.535 853.512 321.596C889.79 324.142 922.698 337.431 950.665 360.901C1012.13 412.484 1035.83 477.618 1015.85 556.015C995.081 637.482 917.38 695.976 833.376 695.859C765.376 695.765 664.925 695.798 590.479 695.811L1134.17 1283.63C1207.87 1283.68 1303.95 1283.63 1369.77 1283.59C1370.24 1283.59 1370.7 1283.57 1371.18 1283.55L968.242 847.902V847.309C968.242 847.309 968.242 846.694 968.5 846.408C968.758 846.123 969.29 845.682 969.563 845.565C970.632 845.112 971.718 844.693 972.82 844.329C1009.76 832.125 1043.53 813.775 1073.92 789.71C1143.14 734.897 1186.37 663.561 1204.36 577.408C1219.04 507.089 1214.36 437.792 1187.87 370.563C1155.36 288.028 1099.62 226.273 1020.67 185.826C967.703 158.694 910.99 147.098 851.731 147.08C728.233 147.042 604.735 147.071 481.236 147.057Z" fill="white"/>
</svg>
