<svg width="1289" height="1137" viewBox="0 0 1289 1137" fill="none" xmlns="http://www.w3.org/2000/svg">
<path d="M235.898 1136.91H0V881.863L235.898 1136.91Z" fill="white"/>
<path d="M760.263 1136.91H525.191L0 569.093V314.941L760.263 1136.91Z" fill="white"/>
<path d="M398.236 0.0566406C267.905 0.0415036 131.832 0.006805 1.5 0C1.37682 0.301862 1.5003 -0.0911026 1.37695 0.461914C1.41226 0.891766 1.45114 1.32336 1.49219 1.75684L349.603 378.119C349.588 340.406 349.561 287.225 349.567 271.171C349.581 240.172 349.692 209.172 349.612 178.173C349.602 174.064 351.001 172.812 355.108 172.812C356.5 172.812 357.106 172.819 358.105 172.819C466.104 172.814 574.103 172.707 682.102 172.873C711.58 172.918 741.145 172.535 770.512 174.596C806.79 177.142 839.698 190.431 867.665 213.901C929.131 265.484 952.832 330.618 932.848 409.015C912.081 490.482 834.38 548.976 750.376 548.859C682.376 548.765 581.925 548.798 507.479 548.811L1051.17 1136.63C1124.87 1136.68 1220.95 1136.63 1286.77 1136.59C1287.24 1136.59 1287.7 1136.57 1288.18 1136.55L885.242 700.902V700.309C885.242 700.309 885.242 699.694 885.5 699.408C885.758 699.123 886.29 698.682 886.563 698.565C887.632 698.112 888.718 697.693 889.82 697.329C926.764 685.125 960.533 666.775 990.922 642.71C1060.14 587.897 1103.37 516.561 1121.36 430.408C1136.04 360.089 1131.36 290.792 1104.87 223.563C1072.36 141.028 1016.62 79.2733 937.668 38.8262C884.703 11.694 827.99 0.0984058 768.731 0.0800781C645.233 0.0419621 521.735 0.0709836 398.236 0.0566406Z" fill="white"/>
</svg>
